<svg class="<%= style %>" xmlns="http://www.w3.org/2000/svg" viewBox="0 0 1345.94 944.91"><g data-name="Layer 2"><g data-name="Layer 1"><path d="M873.48 6A466.58 466.58 0 011055 902.26 466.58 466.58 0 01691.92 42.65 463.54 463.54 0 01873.48 6m0-6C612.55 0 401 211.53 401 472.46s211.55 472.45 472.48 472.45 472.46-211.52 472.46-472.45S1134.41 0 873.48 0z"/><path d="M993.44 848.18C979.2 861.35 966 875.05 951 886.43c-16.82 12.8-34.94 24-53.06 35-12.83 7.78-26.5 14.2-40 20.77-2.15 1-5.47-.34-8.24-.6 1.14-2.56 1.58-6.22 3.55-7.48 6.92-4.44 14.53-7.78 21.58-12 12.48-7.53 24.94-15.13 37.06-23.22 12.86-8.58 25.35-17.74 38-26.72 7.19-5.12 14.27-10.4 21.41-15.6 14.32-10.42 18-25.6 18.75-42 .31-6.37.64-12.74.64-19.11 0-1.86-.51-4.75-1.73-5.42-11.12-6-12.78-17.06-13-27.49-.23-9.65 2.06-19.53 4.4-29 1.51-6.16 7.07-9.34 13.38-8 5.93 1.26 11.4 3.41 13.81 10.67 6 18.09 2.4 34.32-6.75 50.32-2.34 4.07-2.54 9.49-3.24 14.36q-1.93 13.46-3.22 27c-.17 1.84.94 3.8 1.46 5.71a23.91 23.91 0 003.16-3c12.22-16.71 24.62-33.31 36.5-50.27 7.5-10.72 14.47-21.84 21.21-33.06 9.52-15.88 19.14-31.75 27.69-48.16 5.9-11.34 9.9-23.66 15.08-35.4 5.41-12.28.85-22.34-5.59-32.73-12.46-20.1-32.14-32.23-50-46.29a127.33 127.33 0 01-40.75-55c-4.53-11.66-8.13-23.68-12.84-35.26-3.4-8.37-8.08-16.21-11.87-24.44-.94-2-.64-4.68-.91-7 2.26.45 4.74.46 6.75 1.43 6.64 3.21 13.42 6.29 19.55 10.33a287.29 287.29 0 0124.3 18 159.71 159.71 0 0145.67 60.23c7.74 17.7 17.66 34.44 25.71 52 3 6.66 3.47 14.49 5.29 21.73.44 1.74 1.67 3.28 2.54 4.91.84-1.62 2.17-3.17 2.45-4.88 1.59-9.68 3.1-19.37 4.31-29.1 3.58-28.68 8-57.31 9.9-86.11.57-8.78-5.06-18.51-9.43-27-11.64-22.55-33.52-35.26-51.67-51.55-20.5-18.31-40.91-36.95-51.22-63.37-6.37-16.33-11.53-33.14-17.28-49.71-5.05-14.58-10.29-29.09-15.12-43.73-.77-2.32.16-5.21.31-7.83 2.39 1.86 5.64 3.23 7 5.67 8 14.07 14.81 29 23.68 42.48 7.76 11.8 16.69 23.25 27 32.88 16.89 15.84 31.69 33.1 42.7 53.34 9.49 17.45 17.73 35.57 26.78 53.27 4.76 9.31 10 18.39 15.26 27.44.7 1.21 2.78 1.63 4.22 2.41.53-1.57 1.81-3.33 1.49-4.7-4.12-17.35 1.11-34.34 1.74-51.5.46-12.51 3.84-26.22 0-37.32-9.85-28.32-7.47-57.9-12.28-86.64-2.27-13.58 2.12-28.19 2.76-42.36 1.06-23.41 12.95-43.85 17.41-66.28 1.92-9.61 3.13-19.37 4.62-29.07.23-1.45-.19-3.15.45-4.34.77-1.45 2.34-2.47 3.56-3.68 1 1.19 2.72 2.32 2.82 3.58a68.87 68.87 0 010 14c-2.2 16.77-6.5 33.46-6.77 50.24-.28 17.58 3.32 35.22 4.94 52.86 1.52 16.71 4.16 33.31 1.55 50.29-2.53 16.44-2.12 33.44-5.76 49.56-4.65 20.56-1 41.22-3.67 61.68-1.42 10.66-1.84 21.46-2.55 32.21-.12 1.81.55 3.66.86 5.5 1.52-1.3 3.68-2.28 4.48-3.93 7.74-16 14.74-32.27 22.94-48 10.8-20.66 26.93-35.24 48.88-44.69 24.57-10.59 49-22.27 68.61-41.4a7 7 0 013-2.05 36 36 0 015.89-.17c-.53 1.74-.61 3.85-1.67 5.16-20.55 25.3-36.75 53.85-59.7 77.44a243.82 243.82 0 01-46.38 37.3c-7.86 4.89-16.66 8.22-24.67 12.9-15.24 8.91-23 22.74-21.85 40.15 1 15.38-3.86 29.69-5.36 44.54-3.16 31.27-10.84 61.59-18.18 92-1.53 6.33-4.12 12.4-6.09 18.64-.31 1 .07 2.23.13 3.36a12.3 12.3 0 002.81-1.91c8.16-9.74 18.46-18.46 23.85-29.56 9.41-19.36 24.55-31.38 42.43-41.19 3.92-2.15 8.23-4.55 12.5-4.87 5.52-.42 12.33-.73 15.32 5.53 4.26 8.91 2.56 18-3.44 25.31-9.05 10.94-19.52 20.53-33.53 25.09-7.12 2.31-14.07 3.22-21.44.11-9.91-4.19-15.07 4.3-20 9.8-10.68 11.87-20.26 24.75-30 37.43-1.77 2.32-1.89 5.84-3.38 8.45q-21.74 38.08-43.76 76c-1.46 2.5-4 4.39-5.91 6.63-1.08 1.23-2 2.57-3 3.87 2 .16 4.23 1.06 5.8.36 6.43-2.84 12.73-6 18.93-9.35 18.92-10.16 38.11-19.88 56.53-30.87 12.41-7.41 26.14-10.3 39.61-13.27 10.56-2.33 22-.91 33.1-.53 14.93.51 29.84 1.54 44.76 2.51a72.47 72.47 0 0111.62 1.76c1.17.26 2 1.94 3 3-1.26 1.17-2.56 3.39-3.77 3.34-15.7-.62-26.38 10.82-39.5 16.29-4.6 1.91-8.72 5-13.32 6.88-8.63 3.55-17.29 7.2-26.23 9.79-21.86 6.33-44 8.52-66.77 4.53-11.16-1.95-22.7-2-33.36 4.71-5.06 3.18-11.5 4.66-17.52 5.7-16 2.78-25.82 13.62-35.46 25.28-7.4 8.93-15.66 17.15-23.79 26.19m26.43-301.74c3.6 5.28 6.49 11.28 10.95 15.68 8.3 8.15 17.56 15.31 26.34 23q15.93 13.92 31.72 28c2.91 2.6 5.51 5.57 8.26 8.37-1-4.23-1.21-8.81-3-12.62q-10.24-21.37-21.41-42.3c-7.24-13.62-14.12-27.55-22.7-40.31-13.84-20.6-34-34.67-54.3-48.29-1-.68-2.9-.18-4.34 0a4.22 4.22 0 00-.12 2.55c5.67 15 11.08 30.09 17.26 44.87 2.86 6.82 7.23 13 11.38 21m234.7-166.29c1.86-2 4-3.73 5.49-6 1.21-1.83 1.59-4.2 2.34-6.33-2 .59-4.25.84-6.08 1.82-13.51 7.25-26.38 15.64-40.38 21.45-15.1 6.25-28.25 13.94-36.65 28.39-7.84 13.47-15.89 26.83-23.56 40.4-.8 1.41.3 3.89.51 5.88a49.21 49.21 0 004.85-2.34c5.26-3.22 10.54-6.42 15.65-9.86 11.22-7.54 23.68-13.84 33.2-23.14 15.7-15.36 29.48-32.68 44.6-50.17m-219.34-22.51c-12.12-10.94-23.25-22.68-30.85-37.38-1-1.85-2.7-3.3-4.07-4.93 0 2.45-.79 5.18 0 7.32 4.49 11.75 10 23.15 13.95 35.07 6.06 18.19 16.34 33.82 29.38 47.22 15.82 16.25 33.15 31 49.93 46.33 1.11 1 3.07 1.12 4.63 1.64-.28-1.75-.08-3.77-.92-5.19-3-5.09-6.55-9.86-9.51-15-8.44-14.65-15.85-30-25.3-43.94-7.5-11.07-17.42-20.49-27.26-31.16m160.7 388c-19-1.81-37.79-1-55.7 5.85-11.78 4.51-23 10.46-34.44 15.87-5.21 2.47-10.31 5.17-15.43 7.83a12.09 12.09 0 00-2.09 1.79 10.39 10.39 0 002.88 1.22c4.63.42 9.28.58 13.9 1 17.82 1.65 35.82 3.5 53.14-2.05 16.72-5.35 33-12.13 49.36-18.58 4.61-1.81 8.85-4.58 13.18-7.07.88-.51 1.36-1.7 2-2.58a15 15 0 00-3.17-1c-7.55-.65-15.11-1.2-23.66-2.31m-44.35-121.09c-1.73 2.49-3.62 4.89-5.16 7.49-4.74 8-3.87 10.75 5.29 11.33 6.13.39 13.11-.55 18.51-3.29 12.3-6.24 24-13.85 28.49-28.2.69-2.24.29-6.17-1.2-7.4-2.29-1.9-6.32-3.54-9-2.84-14.06 3.74-25.08 12.66-37 22.91m-10.45-330.65c.17-1.21.7-2.49.48-3.62-3.65-18.18-6.76-36.4-5.51-55.07.07-1.05-1.11-2.18-1.71-3.27-1 1.06-2.62 2-2.91 3.21-.65 2.84-.18 6-1 8.73-8.23 28.25.48 54.33 10.12 80.3.45 1.22 1.6 2.18 2.42 3.27a16.15 16.15 0 00.64-3.82c-.62-9.41-1.37-18.81-2.54-29.73M995 734c-2.35.44-5.77.05-6.86 1.46-6 7.72-6.48 33.59-1.34 41.78 3.07 4.88 9.19 5.07 10.77-.2 2.6-8.71 5.19-17.76 5.37-26.72.11-5.22-4.47-10.53-7.94-16.32m143.16-366.79c.35-5.12.74-10.23 1-15.36 1-17.05-8.35-31.6-11.59-47.64-.33-1.6-2-2.92-3.06-4.37-.51 1.79-1.64 3.66-1.42 5.37 1.62 12.94 3.8 25.82 5.21 38.78 1.26 11.56 1.61 23.22 2.73 34.8.21 2.17 2.15 4.17 3.29 6.26.86-2 2.16-3.84 2.49-5.88.6-3.57.58-7.26 1.33-11.92zM99.76 528.35c0 .82-.2 1.23-.61 1.23q-4.71 0-7.36-.2l-11.05-.21-11.24.21c-1.77.13-4.23.2-7.36.2-.41 0-.61-.41-.61-1.23s.2-1.22.61-1.22c3.68 0 6.4-.38 8.18-1.13a6.14 6.14 0 003.58-4 32.09 32.09 0 00.92-9v-33.1q0-12.06-4.61-17.79T56 456.38a27.33 27.33 0 00-12.77 3.38 41.83 41.83 0 00-11.76 9.3v44a32.09 32.09 0 00.92 9A6.09 6.09 0 0036 526q2.66 1.13 8.18 1.13c.4 0 .61.41.61 1.22s-.21 1.23-.61 1.23q-4.71 0-7.36-.2l-11-.21-11.24.21c-1.77.13-4.23.2-7.36.2-.41 0-.62-.41-.62-1.23s.21-1.22.62-1.22c3.68 0 6.4-.38 8.18-1.13a6.1 6.1 0 003.57-4 31.71 31.71 0 00.92-9v-40.46q0-7-1.63-10a5.74 5.74 0 00-5.52-3.07q-3.27 0-11 3.07h-.53a1.15 1.15 0 01-1.13-.92 1 1 0 01.52-1.33L24.31 449l1.23-.2q1.84 0 3.88 4.7a30.37 30.37 0 012 12.06q7.77-9 15.44-13.29A32 32 0 0162.75 448q11.44 0 17.59 6.34T86.47 473v40a32.09 32.09 0 00.92 9 6.09 6.09 0 003.61 4q2.66 1.13 8.18 1.13c.38 0 .58.41.58 1.22zM177.05 518.13a1.41 1.41 0 011.12.72 1.08 1.08 0 01.1 1.33Q164.79 532 148.42 532q-11.85 0-20.24-5.53A36 36 0 01115.4 512a43.2 43.2 0 01-4.4-19.22 44.28 44.28 0 015.72-22.19 42.57 42.57 0 0137.42-21.77q11.44 0 17.58 6.13t6.13 17.18a11.66 11.66 0 01-.51 4.09 1.78 1.78 0 01-1.73 1.22l-50.71.21c-.28 3-.41 5.45-.41 7.36q0 17.79 8.38 28.83t23.52 11a30.05 30.05 0 0010.53-1.64 55.05 55.05 0 009.91-5.11zm-44.17-59.39q-5.73 5.82-7.56 16.25l38.85-.82q0-10.43-4.5-15.84t-12.27-5.42a19.49 19.49 0 00-14.52 5.83zM212.11 526.41a38.59 38.59 0 01-14-15.74 47.84 47.84 0 01-4.91-21.57q0-13.29 6.44-22.6a39.9 39.9 0 0116.56-13.9 49.19 49.19 0 0120.55-4.6 37.42 37.42 0 0121.06 5.93 39.27 39.27 0 0113.8 15.64 45.81 45.81 0 014.8 20.55q0 12.67-5.92 22.18a40.76 40.76 0 01-15.85 14.7 45.7 45.7 0 01-21.57 5.21 38 38 0 01-20.96-5.8zm44.27-6q6.14-8 6.13-24.54a58.38 58.38 0 00-4.19-22.69 37.32 37.32 0 00-11.55-15.64 26.9 26.9 0 00-16.77-5.65q-11 0-17.07 8t-6 22.9a62.1 62.1 0 004.09 22.9 40 40 0 0011.45 16.56 25.16 25.16 0 0016.53 6.1q11.24 0 17.38-7.97zM302.79 404.76q3.48 4.59 3.48 13.18a32.4 32.4 0 01-3.69 15.24 55.78 55.78 0 01-10.83 14 .82.82 0 01-.61.21 1.21 1.21 0 01-1-.62c-.27-.41-.27-.74 0-1a33.31 33.31 0 0010-24.13c0-3.81-.68-6.61-2-8.38q-1.84 3.08-6.34 3.07a7.67 7.67 0 01-5.83-2.25 8 8 0 01-2.15-5.73q0-8.18 9.41-8.17a11.37 11.37 0 019.56 4.58zM331.62 474.48a68.88 68.88 0 0013.7 8.89 121.44 121.44 0 0111.14 6.34 24.66 24.66 0 016.85 7 18.38 18.38 0 012.86 10.43 23 23 0 01-7.77 17.58q-7.77 7.17-21.06 7.16a33.52 33.52 0 01-19.63-6.13 2.77 2.77 0 01-1.22-2.46l-.41-15.94c0-.41.37-.65 1.12-.72s1.19.1 1.33.51q3.89 10.23 10.12 15.54a21.54 21.54 0 0014.42 5.32q6.75 0 10.22-3.28t3.07-9.61q-.21-7.75-4.81-12t-13.8-8.69a91.76 91.76 0 01-10.75-5.94 23.46 23.46 0 01-6.75-7 19.25 19.25 0 01-2.76-10.63q0-11 8.28-16.87a33.09 33.09 0 0119.53-5.82 35.71 35.71 0 0114.92 3.06 2.89 2.89 0 011.54.92 2.62 2.62 0 01.3 1.33q0 4.1-.2 6.34l-.21 8.59c0 .27-.4.41-1.22.41s-1.23-.14-1.23-.41a12.15 12.15 0 00-3.27-8.08 23.72 23.72 0 00-8.18-6 23.36 23.36 0 00-9.81-2.25 11.38 11.38 0 00-8.08 2.76c-2 1.84-3 4.6-3 8.28q.06 7.18 4.76 11.37zM486.8 519a1.32 1.32 0 011.23.92c.27.61.21 1.06-.2 1.33a59 59 0 01-13.6 8.38 33 33 0 01-12.57 2.37q-8.6 0-14.11-3.89T442 515.27v-48a27.81 27.81 0 00-.72-7.57 4.35 4.35 0 00-2.76-3 23.32 23.32 0 00-6.95-.72c-.55 0-.82-.44-.82-1.32s.27-1.33.82-1.33q8.17-.21 13.29-4.4a16.33 16.33 0 005.93-11.14c0-.41.54-.62 1.63-.62s1.44.21 1.44.62v15.13q10.22-.21 28.42-2.05c.27 0 .57.51.92 1.54a10.88 10.88 0 01.51 3.37 8.74 8.74 0 01-.72 3.37c-.48 1.16-1 1.67-1.53 1.54q-11.25-2.87-27.6-3.27v50.91q0 8.38 4.19 12.47t12 4.09a26 26 0 0016.36-5.73zM557.14 451.27c2.72 1.64 4.09 3.62 4.09 5.93a6.32 6.32 0 01-1.74 4.5 7.59 7.59 0 01-8.18 1.12 23.25 23.25 0 01-3.17-2.14 16.49 16.49 0 00-3.47-2.46 8.72 8.72 0 00-3.89-.81 9.48 9.48 0 00-5.62 2.24q-3 2.27-9.3 9.61V513q0 6.13 1.53 9a8.45 8.45 0 005.62 4q4.1 1.13 12.68 1.13c.54 0 .82.41.82 1.22s-.28 1.23-.82 1.23q-6.54 0-10.43-.2l-15.13-.21-11.24.21q-2.67.2-7.36.2c-.41 0-.62-.41-.62-1.23s.21-1.22.62-1.22q5.52 0 8.17-1.13a6.11 6.11 0 003.58-4 31.71 31.71 0 00.92-9v-40.46q0-7-1.63-10a5.76 5.76 0 00-5.52-3.07q-3.29 0-11.05 3.07h-.4a1.15 1.15 0 01-1.13-.92 1 1 0 01.51-1.33L518.7 449l1.23-.2c1.22 0 2.52 1.57 3.88 4.7a30.55 30.55 0 012.05 12.06v.21q8.37-9.81 13.29-13.39t9.4-3.58a16.51 16.51 0 018.59 2.47zM637.7 518.13a1.41 1.41 0 011.12.72 1.1 1.1 0 01.11 1.33Q625.43 532 609.07 532q-11.85 0-20.24-5.53A36 36 0 01576.05 512a43.2 43.2 0 01-4.39-19.22 44.28 44.28 0 015.72-22.19 42.57 42.57 0 0137.42-21.77q11.44 0 17.58 6.13t6.14 17.18a11.66 11.66 0 01-.51 4.09 1.79 1.79 0 01-1.74 1.22l-50.71.21q-.4 4.5-.41 7.36 0 17.79 8.38 28.83t23.52 11a30 30 0 0010.53-1.64 55.44 55.44 0 009.92-5.11zm-44.17-59.39q-5.71 5.82-7.53 16.26l38.85-.82q0-10.43-4.5-15.84t-12.27-5.42a19.49 19.49 0 00-14.55 5.82zM719.89 518.13a1.42 1.42 0 011.13.72 1.11 1.11 0 01.1 1.33Q707.62 532 691.27 532q-11.87 0-20.24-5.53A35.9 35.9 0 01658.25 512a43.07 43.07 0 01-4.4-19.22 44.29 44.29 0 015.73-22.19A42.57 42.57 0 01697 448.82q11.44 0 17.59 6.13t6.13 17.18a11.66 11.66 0 01-.51 4.09 1.78 1.78 0 01-1.74 1.22l-50.71.21q-.4 4.5-.4 7.36 0 17.79 8.38 28.83t23.51 11a30 30 0 0010.53-1.64 55.11 55.11 0 009.92-5.11zm-44.16-59.39q-5.73 5.82-7.57 16.26l38.85-.82q0-10.43-4.5-15.84t-12.27-5.42a19.45 19.45 0 00-14.51 5.82z"/></g></g></svg>
