<svg class="<%= style %>" xmlns="http://www.w3.org/2000/svg" viewBox="0 0 99 99"><path d="M62.068 88.866c-1.49 1.38-2.874 2.815-4.442 4.01-1.763 1.335-3.66 2.514-5.56 3.663-1.343.814-2.775 1.488-4.192 2.176-.223.111-.572-.036-.863-.064.12-.268.165-.651.37-.78.726-.463 1.523-.813 2.263-1.259a97.227 97.227 0 003.883-2.432c1.347-.898 2.656-1.858 3.975-2.8.754-.536 1.496-1.09 2.244-1.634 1.503-1.103 1.881-2.688 1.965-4.41.032-.668.066-1.336.067-2.004 0-.195-.054-.498-.182-.567-1.165-.633-1.336-1.789-1.366-2.881-.025-1.011.216-2.046.46-3.04.159-.646.741-.98 1.402-.839.622.133 1.194.358 1.447 1.114.632 1.893.252 3.596-.707 5.272-.245.426-.266.994-.34 1.504-.134.94-.245 1.883-.334 2.829-.019.192.098.397.153.597.12-.095.232-.201.334-.317 1.28-1.752 2.58-3.49 3.824-5.266a58.393 58.393 0 002.222-3.465c1.002-1.67 2.004-3.326 2.9-5.045.62-1.188 1.039-2.48 1.581-3.71.568-1.286.09-2.338-.586-3.429-1.305-2.105-3.367-3.376-5.234-4.85a13.351 13.351 0 01-4.27-5.759c-.474-1.225-.851-2.481-1.345-3.694-.356-.877-.846-1.698-1.242-2.561-.1-.216-.068-.491-.096-.74.237.048.497.048.707.15.695.335 1.407.66 2.048 1.082.881.582 1.73 1.21 2.546 1.882a16.746 16.746 0 014.788 6.331c.811 1.854 1.851 3.608 2.694 5.45.319.697.363 1.518.557 2.276.045.183.175.344.265.515.089-.17.223-.334.257-.511a82.89 82.89 0 00.452-3.05c.375-3.006.838-6.004 1.037-9.02.06-.92-.53-1.939-.988-2.827-1.225-2.367-3.508-3.697-5.414-5.4-2.147-1.919-4.285-3.871-5.367-6.64-.668-1.711-1.207-3.472-1.81-5.208-.528-1.528-1.077-3.048-1.584-4.582-.08-.243.018-.545.032-.82.251.195.592.334.738.594.844 1.474 1.552 3.035 2.482 4.454.813 1.236 1.748 2.437 2.825 3.446 1.77 1.658 3.32 3.466 4.475 5.588.993 1.828 1.856 3.727 2.805 5.58a61.874 61.874 0 001.598 2.875c.074.127.292.17.445.253.056-.165.19-.348.155-.492-.43-1.819.118-3.598.184-5.395.048-1.311.402-2.748 0-3.911-1.031-2.967-.78-6.066-1.286-9.078-.239-1.423.222-2.953.29-4.438.11-2.45 1.356-4.594 1.823-6.944.202-1.002.329-2.03.485-3.046.023-.151-.02-.334.046-.454.08-.151.245-.26.374-.385.103.123.284.243.295.374.05.487.05.978 0 1.465-.232 1.758-.68 3.507-.71 5.264-.029 1.843.349 3.69.517 5.538.16 1.751.436 3.49.164 5.27-.265 1.722-.223 3.504-.605 5.193-.487 2.154-.1 4.317-.384 6.459-.148 1.114-.192 2.248-.267 3.375-.013.19.057.383.09.576.16-.136.386-.24.47-.411.81-1.67 1.543-3.38 2.403-5.026 1.131-2.165 2.822-3.691 5.122-4.682 2.574-1.114 5.13-2.332 7.189-4.337a.713.713 0 01.315-.215c.205-.023.412-.028.618-.018-.057.183-.065.404-.176.54-2.153 2.652-3.85 5.642-6.255 8.114a25.502 25.502 0 01-4.859 3.91c-.823.51-1.746.86-2.585 1.35-1.596.933-2.407 2.383-2.29 4.207.106 1.61-.403 3.11-.556 4.666-.334 3.276-1.136 6.454-1.905 9.638-.16.669-.431 1.3-.637 1.954-.016.117-.011.236.013.352.107-.053.206-.12.294-.2.855-1.02 1.934-1.934 2.499-3.097.986-2.029 2.572-3.288 4.445-4.316.411-.223.862-.477 1.31-.51.578-.043 1.29-.077 1.605.58.445.933.268 1.893-.36 2.65-.949 1.147-2.046 2.152-3.513 2.63-.746.241-1.475.334-2.246.01-1.038-.438-1.58.446-2.097 1.028-1.114 1.245-2.123 2.593-3.145 3.922-.186.242-.198.611-.354.885-1.518 2.66-3.047 5.315-4.585 7.964-.153.262-.415.46-.62.694-.11.13-.212.27-.318.406.205.016.446.111.607.038a28.764 28.764 0 001.985-.98c1.982-1.064 3.992-2.083 5.922-3.23 1.3-.78 2.738-1.079 4.15-1.39 1.106-.245 2.31-.095 3.468-.055 1.56.053 3.126.161 4.688.263.41.027.818.089 1.219.183.122.028.21.204.314.312-.132.123-.268.355-.395.35-1.645-.065-2.763 1.133-4.139 1.706-.48.201-.913.523-1.395.721-.904.372-1.81.755-2.748 1.026-2.29.668-4.608.89-6.995.474-1.17-.203-2.379-.208-3.496.494-.53.334-1.205.489-1.835.598-1.68.29-2.706 1.426-3.716 2.648-.78.935-1.64 1.797-2.492 2.744l-.014.002zm2.783-31.615c.378.556.68 1.181 1.147 1.641.87.855 1.84 1.605 2.76 2.409 1.113.972 2.221 1.951 3.323 2.935.305.273.578.584.865.877-.101-.446-.126-.922-.317-1.322a119.059 119.059 0 00-2.243-4.432c-.76-1.427-1.48-2.887-2.379-4.223-1.448-2.16-3.563-3.633-5.69-5.06-.11-.07-.303-.018-.455 0a.446.446 0 00-.01.267c.592 1.571 1.16 3.153 1.806 4.702.3.715.758 1.364 1.193 2.202v.004zm24.572-17.422c.195-.206.42-.392.576-.624.126-.192.166-.44.245-.669-.214.063-.446.09-.638.19-1.41.747-2.762 1.627-4.232 2.234-1.583.656-2.959 1.46-3.84 2.974-.82 1.412-1.664 2.812-2.469 4.232-.083.148.032.408.055.616.173-.073.343-.154.508-.244a37.648 37.648 0 001.64-1.035c1.175-.79 2.48-1.447 3.478-2.424 1.645-1.608 3.089-3.423 4.677-5.255v.005zm-22.976-2.358c-1.27-1.146-2.437-2.378-3.23-3.917-.1-.194-.282-.345-.427-.517 0 .258-.082.544 0 .767.47 1.231 1.044 2.426 1.46 3.674.636 1.906 1.714 3.544 3.079 4.948 1.657 1.703 3.473 3.251 5.234 4.855.111.11.32.117.484.171-.029-.183-.009-.395-.095-.543-.314-.534-.688-1.034-1.003-1.57-.89-1.535-1.66-3.142-2.651-4.604-.785-1.16-1.824-2.146-2.856-3.264h.005zm16.832 40.647c-1.988-.19-3.959-.112-5.835.612-1.235.473-2.411 1.096-3.61 1.664-.545.258-1.08.541-1.615.82a1.24 1.24 0 00-.223.188c.094.056.196.1.302.126.484.045.972.062 1.456.112 1.867.174 3.753.366 5.569-.214 1.752-.557 3.452-1.272 5.171-1.947.483-.19.928-.48 1.381-.741.092-.052.142-.178.213-.27a1.667 1.667 0 00-.334-.103c-.792-.068-1.584-.126-2.48-.242l.005-.005zm-4.641-12.686c-.182.262-.38.513-.542.78-.496.838-.405 1.127.557 1.187.642.041 1.373-.058 1.939-.344 1.288-.654 2.52-1.448 2.986-2.956.072-.234.029-.646-.126-.78-.24-.197-.668-.37-.94-.297-1.472.391-2.627 1.327-3.872 2.4l-.002.01zM77.544 30.78c.019-.127.075-.262.05-.38-.382-1.904-.708-3.813-.577-5.77.008-.11-.117-.227-.179-.342-.111.111-.275.208-.304.334-.068.297-.02.623-.105.914-.862 2.96.05 5.693 1.06 8.413.048.129.169.223.254.342.039-.13.061-.264.067-.4a74.31 74.31 0 00-.266-3.117v.006zM62.23 76.907c-.246.046-.605 0-.72.151-.624.81-.678 3.52-.139 4.38.32.51.962.53 1.127-.023.274-.912.545-1.86.564-2.799.01-.546-.47-1.103-.832-1.709zm14.999-38.43c.037-.536.078-1.072.111-1.609.106-1.782-.874-3.312-1.214-4.99-.034-.17-.21-.307-.32-.46-.053.189-.172.384-.148.564.169 1.355.397 2.705.545 4.062.132 1.212.168 2.434.287 3.646.02.223.222.438.345.656.09-.205.222-.402.26-.616.057-.377.056-.765.134-1.252z" fill="currentColor"/><path d="M49.501.629a48.882 48.882 0 0143.203 71.687A48.883 48.883 0 0168.52 94.531 48.882 48.882 0 014.737 68.407 48.886 48.886 0 0130.48 4.469 48.563 48.563 0 0149.501.629zm0-.629C22.164 0 0 22.162 0 49.5 0 76.84 22.164 99 49.501 99 76.838 99 99 76.839 99 49.5 99 22.163 76.838 0 49.501 0z" fill="currentColor"/><path d="M20.933 48.272c.045 0 .067.044.067.133 0 .09-.022.134-.067.134-.344 0-.614-.007-.808-.022l-1.212-.022-1.234.022c-.195.015-.464.022-.808.022-.045 0-.068-.044-.068-.134 0-.089.023-.133.068-.133.404 0 .703-.037.897-.112a.672.672 0 00.382-.445c.075-.208.112-.535.112-.98v-3.61c0-.877-.172-1.523-.516-1.939-.33-.416-.845-.624-1.549-.624-.463 0-.935.127-1.414.38-.463.237-.89.571-1.279 1.002v4.79c0 .446.03.773.09.98.075.209.21.357.404.446.194.075.494.112.898.112.044 0 .067.044.067.133 0 .09-.022.134-.067.134-.345 0-.614-.007-.808-.022l-1.212-.022-1.235.022c-.194.015-.463.022-.807.022-.045 0-.068-.044-.068-.134 0-.089.023-.133.068-.133.403 0 .703-.037.897-.112a.672.672 0 00.382-.445c.075-.208.112-.535.112-.98v-4.413c0-.505-.06-.868-.18-1.091-.12-.223-.321-.334-.606-.334-.239 0-.643.11-1.212.334h-.044c-.06 0-.105-.03-.135-.09-.015-.074.007-.126.067-.155l2.604-1.226a.315.315 0 01.134-.022c.135 0 .277.17.427.512.15.342.224.78.224 1.315.569-.654 1.13-1.136 1.683-1.448a3.598 3.598 0 011.751-.468c.838 0 1.481.23 1.93.69.449.461.673 1.137.673 2.028v4.367c0 .446.03.773.09.98.075.209.21.357.404.446.195.075.494.112.898.112zM29.587 47.291c.045 0 .082.03.112.09.045.044.052.089.023.133-1.018.862-2.11 1.292-3.277 1.292-.883 0-1.646-.2-2.29-.601a3.953 3.953 0 01-1.458-1.56 4.822 4.822 0 01-.471-2.117c0-.89.21-1.7.628-2.428a4.715 4.715 0 011.75-1.716 4.74 4.74 0 012.447-.646c.808 0 1.436.2 1.885.602.449.386.673.92.673 1.604 0 .178-.022.312-.067.4-.03.075-.097.112-.202.112l-5.52.045a6.311 6.311 0 00-.113 1.158c0 1.293.314 2.347.942 3.164.629.803 1.497 1.204 2.604 1.204a3.89 3.89 0 002.311-.736h.023zm-3.3-7.107c-.613 0-1.129.178-1.548.534-.404.342-.688.832-.853 1.47l4.175-.088c0-.61-.165-1.077-.494-1.404-.314-.342-.74-.512-1.28-.512zM35.632 48.829c-.868 0-1.639-.208-2.312-.624a4.351 4.351 0 01-1.526-1.716 5.265 5.265 0 01-.539-2.362c0-.965.232-1.782.696-2.45a4.356 4.356 0 011.818-1.516 5.412 5.412 0 012.267-.512c.883 0 1.653.215 2.311.646a4.187 4.187 0 011.504 1.716c.36.698.539 1.44.539 2.228 0 .92-.217 1.73-.651 2.428a4.541 4.541 0 01-1.75 1.605 5.054 5.054 0 01-2.357.557zm.65-.424c.824 0 1.46-.29 1.908-.869.45-.579.674-1.47.674-2.673 0-.921-.157-1.746-.472-2.474-.299-.728-.718-1.292-1.257-1.693a2.93 2.93 0 00-1.84-.624c-.808 0-1.436.29-1.885.87-.434.578-.65 1.41-.65 2.495 0 .906.149 1.738.448 2.495.3.758.718 1.36 1.257 1.805a2.778 2.778 0 001.818.668zM42.21 34.435c.448 0 .8.17 1.054.512.255.327.382.802.382 1.426 0 .595-.135 1.152-.404 1.672-.27.505-.666 1.01-1.19 1.515-.015.014-.037.022-.067.022-.045 0-.082-.022-.112-.067-.03-.044-.03-.082 0-.111.733-.743 1.1-1.62 1.1-2.63 0-.416-.075-.72-.225-.913-.135.223-.366.334-.696.334-.269 0-.486-.082-.65-.245a.888.888 0 01-.225-.624c0-.594.344-.891 1.032-.891zM45.886 41.298c0 .52.172.935.516 1.247.344.297.853.617 1.526.959.524.267.928.497 1.212.69.3.193.554.446.763.758.21.312.314.69.314 1.136 0 .758-.284 1.396-.852 1.916-.569.52-1.34.78-2.312.78a3.697 3.697 0 01-2.155-.668.3.3 0 01-.134-.268l-.045-1.738c0-.044.037-.066.112-.066.09-.015.142 0 .157.044.284.743.651 1.307 1.1 1.694.464.386.995.579 1.593.579.464 0 .823-.104 1.078-.312.269-.223.404-.55.404-.98 0-.416-.098-.766-.292-1.048a1.997 1.997 0 00-.674-.69c-.269-.179-.635-.387-1.1-.624-.493-.238-.89-.453-1.189-.647a2.762 2.762 0 01-.74-.757c-.195-.312-.292-.698-.292-1.159 0-.802.3-1.41.898-1.827.613-.43 1.331-.646 2.154-.646.599 0 1.145.111 1.639.334.09.03.142.067.157.112.03.03.045.074.045.133 0 .297-.008.528-.023.691l-.022.936c0 .03-.045.044-.135.044-.09 0-.135-.014-.135-.044 0-.312-.12-.602-.359-.87a2.534 2.534 0 00-.898-.667 2.582 2.582 0 00-1.077-.246c-.389 0-.695.104-.92.312-.21.193-.314.49-.314.892zM16.803 61.704c.06 0 .105.038.135.112.03.06.022.104-.022.133-.554.431-1.055.736-1.504.914-.434.178-.89.267-1.37.267-.628 0-1.144-.14-1.548-.423-.404-.282-.606-.75-.606-1.404v-5.236c0-.386-.03-.66-.09-.824a.415.415 0 00-.291-.312c-.15-.06-.404-.09-.763-.09-.06 0-.09-.044-.09-.133 0-.104.03-.156.09-.156.598-.015 1.084-.17 1.459-.468.373-.312.59-.72.65-1.225 0-.045.06-.067.18-.067.105 0 .157.022.157.067v1.648c.748-.014 1.788-.089 3.12-.222.03 0 .06.06.09.178a.892.892 0 01-.023.735c-.045.119-.097.171-.157.156-.823-.208-1.833-.327-3.03-.356v5.548c0 .609.15 1.062.449 1.359.314.297.755.446 1.324.446.688 0 1.287-.208 1.795-.624l.045-.023zM23.579 54.062c.329 0 .643.089.942.267.3.178.45.394.45.646a.664.664 0 01-.203.49c-.12.134-.3.201-.538.201a.911.911 0 01-.36-.067 6.032 6.032 0 01-.336-.245 1.801 1.801 0 00-.382-.267.949.949 0 00-.426-.09c-.195 0-.404.082-.629.246-.209.148-.546.49-1.01 1.025v4.79c0 .446.053.773.158.98.12.209.329.357.628.446.3.075.763.112 1.392.112.06 0 .09.044.09.133 0 .09-.03.134-.09.134-.48 0-.86-.007-1.145-.022l-1.66-.023-1.235.023a11.23 11.23 0 01-.808.022c-.045 0-.068-.044-.068-.134 0-.089.023-.133.068-.133.404 0 .703-.037.897-.112a.672.672 0 00.382-.445c.075-.208.112-.535.112-.98v-4.412c0-.506-.06-.87-.18-1.092-.119-.223-.321-.334-.605-.334-.24 0-.644.11-1.212.334h-.045c-.06 0-.105-.03-.135-.09-.015-.074.008-.126.068-.155l2.603-1.226a.314.314 0 01.135-.022c.134 0 .276.17.426.512.15.342.224.78.224 1.315v.022c.614-.713 1.1-1.196 1.46-1.448.358-.267.703-.401 1.032-.401zM33.488 61.615c.045 0 .083.03.112.09.045.044.053.089.023.133-1.018.862-2.11 1.292-3.277 1.292-.883 0-1.646-.2-2.29-.601a3.953 3.953 0 01-1.458-1.56 4.821 4.821 0 01-.471-2.117c0-.89.21-1.7.628-2.428a4.714 4.714 0 011.75-1.716 4.739 4.739 0 012.447-.646c.808 0 1.436.2 1.885.601.45.387.674.921.674 1.605 0 .178-.023.312-.068.4-.03.075-.097.112-.202.112l-5.52.045a6.32 6.32 0 00-.113 1.158c0 1.293.314 2.347.943 3.164.628.803 1.496 1.204 2.603 1.204a3.89 3.89 0 002.312-.736h.022zm-3.299-7.108c-.613 0-1.13.179-1.549.535-.404.342-.688.832-.852 1.47l4.174-.088c0-.61-.165-1.077-.494-1.404-.314-.342-.74-.513-1.279-.513zM42.518 61.615c.045 0 .082.03.112.09.045.044.053.089.023.133-1.018.862-2.11 1.292-3.277 1.292-.883 0-1.646-.2-2.29-.601a3.952 3.952 0 01-1.458-1.56 4.821 4.821 0 01-.471-2.117c0-.89.21-1.7.628-2.428a4.714 4.714 0 011.75-1.716 4.739 4.739 0 012.447-.646c.808 0 1.436.2 1.885.601.449.387.673.921.673 1.605 0 .178-.022.312-.067.4-.03.075-.097.112-.202.112l-5.52.045a6.32 6.32 0 00-.113 1.158c0 1.293.314 2.347.943 3.164.628.803 1.496 1.204 2.603 1.204a3.89 3.89 0 002.312-.736h.022zm-3.3-7.108c-.613 0-1.129.179-1.548.535-.404.342-.688.832-.852 1.47l4.174-.088c0-.61-.165-1.077-.494-1.404-.314-.342-.74-.513-1.28-.513z" fill="currentColor"/></svg>
