<svg class="<%= style %>" fill="currentColor" xmlns="http://www.w3.org/2000/svg" viewBox="0 0 945.86 944.74"><g data-name="Layer 2"><g data-name="Layer 1"><path d="M597 850c-14.14 13.09-27.26 26.69-42.12 38-16.71 12.72-34.72 23.84-52.71 34.74-12.75 7.73-26.34 14.11-39.77 20.63-2.13 1-5.42-.33-8.18-.59 1.13-2.55 1.56-6.18 3.52-7.44 6.88-4.4 14.44-7.72 21.44-11.94 12.41-7.47 24.78-15 36.82-23.06 12.78-8.53 25.19-17.63 37.71-26.55 7.14-5.09 14.18-10.34 21.27-15.5 14.22-10.35 17.84-25.43 18.63-41.76.3-6.32.62-12.65.63-19 0-1.85-.5-4.72-1.72-5.38-11-6-12.7-16.95-12.95-27.31-.24-9.59 2-19.4 4.36-28.83 1.51-6.12 7-9.28 13.29-7.95 5.9 1.26 11.33 3.38 13.73 10.6 6 18 2.38 34.1-6.71 50-2.32 4.05-2.52 9.43-3.22 14.27q-1.92 13.37-3.19 26.81c-.18 1.83.93 3.78 1.45 5.67a24.89 24.89 0 003.14-3c12.14-16.6 24.45-33.09 36.25-49.93 7.46-10.65 14.38-21.7 21.07-32.85 9.46-15.78 19-31.54 27.51-47.84 5.87-11.27 9.84-23.51 15-35.18 5.38-12.19.84-22.19-5.56-32.51-12.38-20-31.93-32-49.66-46a126.61 126.61 0 01-40.49-54.61c-4.49-11.58-8.07-23.53-12.75-35-3.38-8.31-8-16.1-11.79-24.28-.94-2-.64-4.65-.91-7 2.25.44 4.72.45 6.71 1.42 6.59 3.19 13.33 6.25 19.42 10.26a281.92 281.92 0 0124.14 17.84 158.79 158.79 0 0145.44 60c7.68 17.58 17.54 34.21 25.54 51.68 3 6.61 3.45 14.39 5.25 21.59.44 1.72 1.66 3.25 2.53 4.87.83-1.61 2.15-3.14 2.43-4.84 1.58-9.62 3.08-19.25 4.28-28.92 3.56-28.49 7.95-56.93 9.83-85.54.58-8.73-5-18.39-9.36-26.81-11.57-22.44-33.26-35.06-51.34-51.21-20.36-18.19-40.64-36.7-50.88-63-6.33-16.22-11.45-32.91-17.16-49.38-5-14.48-10.23-28.9-15-43.44-.76-2.31.16-5.18.31-7.78 2.38 1.85 5.61 3.21 7 5.63 8 14 14.71 28.78 23.53 42.2 7.71 11.73 16.59 23.11 26.79 32.67 16.78 15.73 31.49 32.88 42.43 53 9.42 17.34 17.61 35.34 26.6 52.92 4.73 9.25 9.93 18.27 15.16 27.26.7 1.21 2.76 1.62 4.19 2.4.53-1.57 1.8-3.31 1.48-4.67-4.09-17.24 1.11-34.12 1.74-51.16.45-12.43 3.81-26.05 0-37.09-9.79-28.12-7.42-57.51-12.2-86.06-2.26-13.5 2.11-28 2.74-42.09 1-23.26 12.87-43.57 17.3-65.84 1.91-9.56 3.11-19.25 4.59-28.89.22-1.43-.19-3.13.44-4.3.77-1.44 2.33-2.46 3.55-3.66 1 1.18 2.7 2.3 2.79 3.55a68.71 68.71 0 01.06 13.9c-2.2 16.66-6.46 33.25-6.73 49.91-.28 17.47 3.3 35 4.9 52.51 1.52 16.61 4.14 33.1 1.55 50-2.51 16.33-2.11 33.22-5.73 49.24-4.62 20.42-1 40.95-3.65 61.27-1.4 10.59-1.82 21.32-2.53 32-.11 1.79.55 3.64.86 5.46 1.51-1.28 3.66-2.26 4.45-3.9 7.68-15.84 14.64-32.06 22.79-47.65 10.73-20.52 26.76-35 48.56-44.4C840.24 377.64 864.47 366 884 347a6.78 6.78 0 013-2 33.6 33.6 0 015.86-.17c-.54 1.72-.61 3.82-1.67 5.12-20.41 25.13-36.51 53.49-59.31 76.93A241.71 241.71 0 01785.79 464c-7.81 4.85-16.56 8.17-24.51 12.81-15.14 8.85-22.83 22.6-21.71 39.9 1 15.27-3.83 29.48-5.32 44.24-3.14 31.06-10.78 61.19-18.07 91.39-1.52 6.3-4.09 12.33-6 18.53-.32 1 .07 2.22.12 3.33a12.17 12.17 0 002.8-1.89c8.1-9.68 18.34-18.34 23.69-29.37 9.35-19.23 24.39-31.17 42.16-40.92 3.89-2.14 8.17-4.52 12.42-4.84 5.48-.41 12.24-.72 15.21 5.5 4.23 8.85 2.55 17.93-3.42 25.14-9 10.87-19.39 20.4-33.31 24.92-7.07 2.3-14 3.21-21.29.11-9.85-4.16-15 4.27-19.89 9.74-10.61 11.8-20.13 24.59-29.82 37.19-1.76 2.3-1.87 5.8-3.36 8.39Q673.86 746 652 783.63c-1.45 2.49-3.93 4.37-5.87 6.59-1.08 1.22-2 2.56-3 3.85 1.94.16 4.2 1 5.76.35 6.39-2.82 12.65-6 18.81-9.29 18.79-10.09 37.85-19.74 56.16-30.67 12.32-7.35 26-10.22 39.35-13.18 10.49-2.31 21.9-.9 32.88-.52 14.83.5 29.65 1.53 44.46 2.49a72.71 72.71 0 0111.51 1.75c1.16.27 2 1.94 3 3-1.25 1.16-2.54 3.37-3.74 3.32-15.61-.61-26.21 10.74-39.24 16.18-4.57 1.9-8.66 4.95-13.24 6.84-8.57 3.52-17.17 7.15-26.05 9.72-21.73 6.29-43.69 8.47-66.34 4.5-11.08-1.94-22.55-2-33.14 4.68-5 3.16-11.42 4.63-17.41 5.67-15.91 2.76-25.65 13.53-35.23 25.1-7.35 8.88-15.55 17-23.63 26m26.26-299.77c3.57 5.24 6.44 11.21 10.88 15.58 8.24 8.09 17.44 15.21 26.16 22.83q15.84 13.83 31.51 27.83c2.9 2.59 5.48 5.53 8.21 8.32-1-4.2-1.2-8.75-3-12.54q-10.17-21.22-21.26-42c-7.21-13.53-14-27.37-22.56-40.05-13.75-20.47-33.77-34.44-53.94-48-1-.68-2.89-.18-4.32 0a4.25 4.25 0 00-.11 2.53c5.62 14.89 11 29.89 17.14 44.57 2.84 6.79 7.18 12.94 11.31 20.89M856.44 385c1.85-1.95 4-3.71 5.46-5.92 1.2-1.82 1.58-4.17 2.32-6.29-2 .58-4.22.84-6 1.8-13.4 7.1-26.22 15.41-40.13 21.19-15 6.22-28.09 13.85-36.41 28.22-7.78 13.39-15.78 26.66-23.4 40.14-.8 1.4.29 3.86.51 5.84a53.27 53.27 0 004.81-2.32c5.23-3.2 10.47-6.39 15.55-9.8 11.15-7.49 23.53-13.75 33-23 15.61-15.26 29.3-32.47 44.31-49.84m-217.9-22.36c-12-10.87-23.1-22.54-30.65-37.14-.95-1.84-2.68-3.28-4-4.9 0 2.44-.78 5.15 0 7.27 4.45 11.68 9.91 23 13.85 34.84 6 18.07 16.24 33.6 29.2 46.92 15.71 16.14 32.93 30.82 49.6 46 1.1 1 3 1.1 4.6 1.62-.28-1.73-.09-3.74-.92-5.15-3-5.06-6.51-9.8-9.44-14.88-8.4-14.56-15.75-29.8-25.14-43.66-7.45-11-17.31-20.35-27.08-30.95m159.6 385.47c-18.84-1.8-37.53-1-55.33 5.81-11.7 4.48-22.86 10.39-34.21 15.77-5.18 2.45-10.25 5.13-15.33 7.78a11.55 11.55 0 00-2.08 1.78 10.51 10.51 0 002.86 1.2c4.6.42 9.22.58 13.81 1 17.7 1.64 35.58 3.47 52.79-2 16.62-5.33 32.79-12.06 49-18.46 4.58-1.81 8.8-4.56 13.09-7 .88-.5 1.36-1.69 2-2.56a15.47 15.47 0 00-3.15-1c-7.5-.64-15-1.19-23.51-2.29m-44-120.3c-1.72 2.47-3.6 4.85-5.13 7.44-4.71 8-3.84 10.68 5.25 11.26 6.09.39 13-.55 18.39-3.27 12.22-6.2 23.9-13.76 28.31-28 .69-2.22.28-6.13-1.19-7.35-2.28-1.88-6.28-3.51-8.91-2.82-14 3.71-24.91 12.57-36.72 22.76m-10.38-328.54c.18-1.2.7-2.48.48-3.6-3.63-18.06-6.72-36.15-5.47-54.71.07-1-1.11-2.16-1.7-3.25-1 1.06-2.61 2-2.89 3.2-.64 2.82-.18 5.92-1 8.67-8.18 28.07.48 54 10.06 79.77.45 1.22 1.59 2.17 2.4 3.25a16.34 16.34 0 00.64-3.79c-.62-9.35-1.36-18.69-2.53-29.54M598.55 736.6c-2.33.43-5.74 0-6.82 1.44-5.92 7.67-6.43 33.38-1.32 41.51 3 4.85 9.12 5 10.69-.2 2.59-8.65 5.15-17.64 5.34-26.54.1-5.18-4.45-10.46-7.89-16.21m142.23-364.4c.35-5.08.73-10.17 1-15.25 1-16.94-8.29-31.41-11.51-47.34-.32-1.58-2-2.9-3-4.34-.5 1.78-1.62 3.64-1.41 5.34 1.61 12.85 3.77 25.65 5.18 38.53 1.25 11.48 1.6 23.06 2.71 34.56.21 2.16 2.14 4.15 3.27 6.22.86-1.94 2.15-3.81 2.47-5.84.56-3.58.51-7.25 1.29-11.88z"/><path d="M406.72 7.71A474.26 474.26 0 01473.49 3c259.23 0 469.37 210.14 469.37 469.37S732.72 941.74 473.49 941.74 4.12 731.59 4.12 472.37q0-14.64.89-29.07" fill="none" stroke="currentColor" stroke-miterlimit="10" stroke-width="6"/><path d="M60.71 346.32c.52.11.75.3.69.56-.45 2-.84 3.51-1.18 4.6l-1.7 6.93-1.52 7.11c-.17 1.13-.47 2.69-.92 4.66-.06.26-.35.33-.86.21s-.74-.3-.69-.56a14.26 14.26 0 00.46-5.31 4 4 0 00-2-2.82 20.43 20.43 0 00-5.53-1.86l-20.86-4.73q-7.59-1.73-11.85.36t-5.59 8.13a17.51 17.51 0 00.3 8.53 26.93 26.93 0 004.18 8.73l27.68 6.27a20.42 20.42 0 005.79.7 3.94 3.94 0 003-1.68 14.35 14.35 0 001.88-5c.06-.26.34-.33.86-.21s.74.3.68.56c-.45 2-.84 3.51-1.18 4.6l-1.68 6.9-1.48 7.11c-.16 1.13-.47 2.69-.92 4.66-.06.26-.34.33-.86.21s-.74-.3-.68-.56a14.48 14.48 0 00.46-5.31 4 4 0 00-2-2.82 20.53 20.53 0 00-5.54-1.86l-25.49-5.78c-2.91-.66-5.1-.79-6.54-.4a3.73 3.73 0 00-2.72 3c-.31 1.37-.19 3.84.36 7.39l-.06.36a.73.73 0 01-.74.57.63.63 0 01-.76-.57L0 382.5l.05-.8q.26-1.15 3.51-1.77a19.7 19.7 0 017.89.43 38.56 38.56 0 01-6.17-11.61 20.69 20.69 0 01-.44-10.59q1.63-7.21 6.5-10.17t12.59-1.21l25.23 5.72a20.51 20.51 0 005.8.7 4 4 0 003-1.68 14.37 14.37 0 001.87-5c.08-.25.37-.32.88-.2zM73.4 295.51a.91.91 0 01.69-.51.71.71 0 01.83.25q4 10.89.15 20.73a22.65 22.65 0 01-19.78 15.18 27.7 27.7 0 01-12.6-1.85 28.63 28.63 0 01-12-8.63 27.49 27.49 0 01-4.34-27.61q2.67-6.88 7.8-9.15t11.77.33a7.43 7.43 0 012.34 1.27 1.12 1.12 0 01.33 1.33l-11.75 30.56c1.74.86 3.19 1.52 4.33 2q10.71 4.17 19.31 1.71t12.15-11.57a19.69 19.69 0 001.48-6.72 35.28 35.28 0 00-.76-7.16zm-46.07 12.67q2.16 4.81 8 8.36L43.94 293q-6.28-2.43-10.59-1a9.76 9.76 0 00-6.13 6.11 12.57 12.57 0 00.11 10.07zM89.47 274.94a25 25 0 01-13.29 2.91 31.09 31.09 0 01-13.7-4.05A25 25 0 0151.8 263a25.79 25.79 0 01-2.6-13.72 31.85 31.85 0 013.91-13 24.18 24.18 0 0110-10 25.34 25.34 0 0113.17-2.83 29.64 29.64 0 0113.08 3.79 26 26 0 0113.9 23.92A29.48 29.48 0 0199.37 265a24.59 24.59 0 01-9.9 9.94zm10.59-26.83q-2.55-6-11.88-11.2a37.7 37.7 0 00-14.1-4.82 24.06 24.06 0 00-12.45 1.57 17.33 17.33 0 00-8.47 7.66q-3.48 6.21-.9 12.13t11 10.63A40 40 0 0077.43 269a25.78 25.78 0 0012.94-1.21 16.29 16.29 0 008.69-7.38q3.54-6.32 1-12.3zM58 176.7q3.72-.13 8.26 3.05a21 21 0 016.74 7.59 35.9 35.9 0 013.39 10.91.54.54 0 01-.12.4.78.78 0 01-.7.32c-.32 0-.5-.14-.54-.38a21.51 21.51 0 00-9-14.24q-3-2.11-5.19-2a4.38 4.38 0 01-.72 4.49 5 5 0 01-3.35 2.24 5.08 5.08 0 01-3.82-1c-2.88-2-3.17-4.69-.84-8A7.32 7.32 0 0158 176.7zM110.64 181.76a44.39 44.39 0 0010.06-3.16 79.13 79.13 0 017.74-2.94 16.1 16.1 0 016.27-.55 11.93 11.93 0 016.37 2.87 14.86 14.86 0 015.56 11.1q.36 6.81-5.1 13.42a21.68 21.68 0 01-11.13 7.25 1.77 1.77 0 01-1.72-.4l-8.11-6.35c-.2-.17-.17-.45.11-.85s.54-.55.8-.45a24.17 24.17 0 0011.89 1.3 13.9 13.9 0 008.58-5q2.78-3.36 2.57-6.43c-.13-2.05-1.3-3.87-3.52-5.48q-3.94-3.09-7.93-2.53a39 39 0 00-10 3.3 59.64 59.64 0 01-7.36 2.9 15.1 15.1 0 01-6.24.5 12.39 12.39 0 01-6.42-3q-5.5-4.53-5-11.06a21.38 21.38 0 015.13-12.11 23.13 23.13 0 017.66-6.17 1.85 1.85 0 011.09-.38 1.67 1.67 0 01.79.39c1.36 1.12 2.38 2 3.07 2.71l4.19 3.63c.14.12 0 .38-.3.78s-.57.56-.71.45a7.86 7.86 0 00-5.36-1.7 15.32 15.32 0 00-6.37 1.59 15 15 0 00-5.15 4 7.3 7.3 0 00-2 5.16 7 7 0 002.9 4.88 9.28 9.28 0 007.64 2.33zM211 123.91a.85.85 0 011 0q.59.28.45.75a38.17 38.17 0 01-3.36 9.75 21.44 21.44 0 01-5.28 6.37 15.41 15.41 0 01-8.63 3.83q-4.35.33-8-4.17l-19.66-24a17.84 17.84 0 00-3.46-3.48 2.79 2.79 0 00-2.59-.35 15.38 15.38 0 00-3.76 2.48c-.28.23-.59.12-1-.32s-.4-.78-.13-1a13.67 13.67 0 004.84-7.64 10.58 10.58 0 00-1.6-8c-.17-.2 0-.53.56-1s.8-.49 1-.28l6.19 7.55q5-4.27 13.35-12.65c.14-.11.5 0 1.09.39a6.77 6.77 0 011.63 1.47 5.82 5.82 0 011 2c.23.78.19 1.24-.14 1.39a82.14 82.14 0 00-15.12 9.67l20.84 25.42c2.29 2.79 4.68 4.29 7.2 4.51s5.05-.74 7.64-2.86a16.72 16.72 0 005.82-9.55zM228.45 59.84q3.08-.11 4.29 1.79a4.07 4.07 0 01.63 3.05 4.88 4.88 0 01-4.05 3.46 14.1 14.1 0 01-2.47 0 10.09 10.09 0 00-2.74-.12 5.59 5.59 0 00-2.4.91 6.07 6.07 0 00-2.26 3.18 48.5 48.5 0 00-1.7 8.47L233 104.29a12.92 12.92 0 004 4.35 5.49 5.49 0 004.45.2 33.19 33.19 0 007.27-3.82c.3-.19.59-.06.88.39s.28.76 0 1q-3.56 2.28-5.73 3.53l-8.29 5.17-6 4q-1.38 1-3.93 2.68c-.22.14-.48 0-.76-.45s-.32-.74-.1-.88a14.36 14.36 0 004-3.47 3.94 3.94 0 00.55-3.41 20.42 20.42 0 00-2.64-5.21l-14.14-22c-1.61-2.52-3.08-4.14-4.38-4.87a3.72 3.72 0 00-4.07.26q-1.79 1.14-4.93 5.52l-.22.14a.74.74 0 01-.93-.1.63.63 0 01-.19-.9L206.79 72l.6-.54q1-.65 3.75 1.2a19.5 19.5 0 015.32 5.83l.08.11a57.49 57.49 0 012.54-11.91 10.38 10.38 0 013.85-5.23 10.65 10.65 0 015.52-1.62zM301.6 70.94a.91.91 0 01.86.1.7.7 0 01.43.74q-4.51 10.68-14 15.27a22.69 22.69 0 01-24.89-2.4 27.89 27.89 0 01-7.94-9.94 28.62 28.62 0 01-2.86-14.51 27.49 27.49 0 0115.65-23.15q6.66-3.21 11.95-1.36t8.38 8.31a7.35 7.35 0 01.85 2.53 1.15 1.15 0 01-.66 1.2L259.93 62c.69 1.82 1.29 3.29 1.83 4.4q5 10.34 13 14.41t16.77-.17a19.67 19.67 0 005.66-3.9 35.26 35.26 0 004.29-5.74zm-42.33-22.16q-1.69 5 .16 11.57L281.79 49q-2.93-6.06-7.06-7.95a9.75 9.75 0 00-8.65.29 12.57 12.57 0 00-6.81 7.44zM355 52.26a.87.87 0 01.83.21.68.68 0 01.33.79q-5.86 10-15.9 13.31A22.7 22.7 0 01316 61a28 28 0 01-6.58-10.9 28.61 28.61 0 01-1-14.76 27.43 27.43 0 0118.54-20.91q7-2.33 12 .2t7.23 9.29a7.24 7.24 0 01.51 2.61 1.15 1.15 0 01-.81 1.11L314.84 38c.44 1.9.85 3.43 1.24 4.6q3.59 10.91 11 16t16.65 2a19.45 19.45 0 006.13-3.14 35.18 35.18 0 005-5.13zm-39.1-27.49q-2.32 4.73-1.35 11.49l23.66-8.35q-2.11-6.4-6-8.81a9.72 9.72 0 00-8.61-.84 12.56 12.56 0 00-7.7 6.51z"/></g></g></svg>
